<svg width="159.000000" height="29.000000" viewBox="0 0 159 29" fill="none" xmlns="http://www.w3.org/2000/svg" xmlns:xlink="http://www.w3.org/1999/xlink">
    <desc>
        Created with Pixso.
    </desc>
    <defs/>
    <path id="Forma 1" d="M0 27L0 24.31L32 24.31L32 27L0 27ZM0 16.76L0 14.06L32 14.06L32 16.76L0 16.76ZM0 6.68L0 4L32 4L32 6.68L0 6.68Z" fill="#E8E8E8" fill-opacity="1.000000" fill-rule="nonzero"/>
    <path id="Forma 1" d="M79.5 19.93C84 19.93 87.65 15.46 87.65 9.96C87.65 4.47 84 0 79.5 0C78.36 0.02 77.24 0.3 76.23 0.82C75.22 1.34 74.34 2.08 73.66 3C72.12 4.99 71.3 7.45 71.34 9.97C71.34 15.46 75 19.93 79.5 19.93ZM79.5 1.81C83 1.81 85.84 5.47 85.84 9.96C85.84 14.46 82.99 18.12 79.5 18.12C76 18.12 73.15 14.46 73.15 9.96C73.15 5.47 76 1.81 79.5 1.81ZM85.84 18.12C85.6 18.12 85.37 18.22 85.2 18.39C85.03 18.56 84.93 18.79 84.93 19.03C84.93 19.27 85.03 19.5 85.2 19.67C85.37 19.84 85.6 19.93 85.84 19.93C87.52 19.93 89.13 20.6 90.32 21.79C91.51 22.98 92.18 24.6 92.18 26.28C92.18 26.52 92.09 26.75 91.92 26.92C91.75 27.09 91.52 27.18 91.28 27.18L67.72 27.18C67.47 27.18 67.24 27.09 67.08 26.92C66.91 26.75 66.81 26.52 66.81 26.28C66.81 24.6 67.48 22.98 68.67 21.79C69.86 20.6 71.47 19.94 73.15 19.93C73.39 19.93 73.62 19.84 73.79 19.67C73.96 19.5 74.06 19.27 74.06 19.03C74.06 18.79 73.96 18.56 73.79 18.39C73.62 18.22 73.39 18.12 73.15 18.12C70.99 18.12 68.92 18.98 67.39 20.51C65.86 22.04 65 24.11 65 26.28C65 27 65.28 27.69 65.79 28.2C66.3 28.71 66.99 28.99 67.71 29L91.28 29C92 28.99 92.69 28.71 93.2 28.2C93.71 27.69 93.99 27 94 26.28C93.99 24.11 93.13 22.04 91.6 20.51C90.07 18.98 88 18.12 85.84 18.12Z" fill="#E8E8E8" fill-opacity="1.000000" fill-rule="nonzero"/>
    <path id="Forma 1" d="M153.2 29C152.55 28.97 151.94 28.69 151.49 28.22C151.05 27.75 150.81 27.12 150.82 26.47C150.83 25.82 151.1 25.2 151.56 24.75C152.03 24.3 152.65 24.04 153.3 24.04C153.94 24.04 154.57 24.3 155.03 24.75C155.49 25.2 155.76 25.82 155.77 26.47C155.79 27.12 155.54 27.75 155.1 28.22C154.66 28.69 154.04 28.97 153.4 29L153.2 29ZM133.75 26.31C133.75 25.78 133.91 25.27 134.2 24.83C134.49 24.39 134.91 24.04 135.4 23.84C135.89 23.64 136.43 23.58 136.95 23.69C137.47 23.79 137.95 24.05 138.32 24.42C138.7 24.79 138.95 25.27 139.06 25.79C139.16 26.31 139.11 26.85 138.9 27.34C138.7 27.83 138.36 28.25 137.92 28.54C137.48 28.84 136.96 29 136.43 29C136.08 29 135.73 28.93 135.4 28.79C135.08 28.66 134.78 28.46 134.53 28.21C134.28 27.96 134.09 27.67 133.95 27.34C133.82 27.02 133.75 26.67 133.75 26.31L133.75 26.31ZM137.55 20.68C137.29 20.68 137.04 20.6 136.83 20.44C136.62 20.28 136.47 20.06 136.4 19.81L131.57 2.36L128.18 2.36C127.86 2.36 127.56 2.23 127.34 2.01C127.12 1.79 127 1.49 127 1.18C127 0.86 127.12 0.56 127.34 0.34C127.56 0.12 127.86 0 128.18 0L132.46 0C132.72 -0.01 132.97 0.08 133.18 0.24C133.38 0.39 133.53 0.61 133.6 0.86L138.44 18.32L151.61 18.32L156 8.27L141.4 8.27C141.24 8.27 141.08 8.25 140.93 8.19C140.78 8.13 140.65 8.05 140.54 7.94C140.42 7.83 140.33 7.69 140.27 7.55C140.21 7.4 140.18 7.25 140.18 7.09C140.18 6.93 140.21 6.77 140.27 6.63C140.33 6.48 140.42 6.35 140.54 6.24C140.65 6.13 140.78 6.04 140.93 5.98C141.08 5.93 141.24 5.9 141.4 5.91L157.81 5.91C158 5.9 158.2 5.95 158.37 6.05C158.54 6.14 158.69 6.27 158.8 6.44C158.9 6.6 158.97 6.79 158.99 6.99C159 7.18 158.97 7.38 158.89 7.56L153.49 19.97C153.4 20.18 153.25 20.36 153.05 20.49C152.86 20.61 152.64 20.68 152.41 20.68L137.55 20.68Z" fill="#E8E8E8" fill-opacity="1.000000" fill-rule="nonzero"/>
</svg>
